<svg width="36" height="36" viewBox="0 0 36 36" xmlns="http://www.w3.org/2000/svg"><path d="M29.939 6.934l-8.636 8.648h8.028a.598.598 0 0 1 0 1.198H19.175V6.599a.598.598 0 1 1 1.195 0v8.23l8.4-8.412A.59.59 0 0 1 29.331 6c.33 0 .598.268.598.599 0 .094-.027.18-.066.26l.076.075zM16.183 29.955a.599.599 0 0 1-.598-.599v-8.23l-8.414 8.412a.592.592 0 0 1-.562.417.599.599 0 0 1-.599-.599c0-.094.027-.18.066-.26L6 29.021l8.65-8.648H6.61a.599.599 0 0 1 0-1.198h10.173v10.181c0 .331-.268.6-.599.6z" fill="#fff" fill-rule="evenodd"/></svg>