<svg width="36" height="36" viewBox="0 0 36 36" xmlns="http://www.w3.org/2000/svg"><path d="M29.319 16.762a.598.598 0 0 1-.598-.598V7.947l-8.407 8.399a.592.592 0 0 1-.562.416.598.598 0 0 1-.598-.598c0-.094.026-.18.065-.26l-.075-.074 8.643-8.634h-8.035a.598.598 0 0 1 0-1.196h10.165v10.165c0 .33-.268.598-.598.598zM8.126 28.721h8.021a.597.597 0 0 1 0 1.196H6V19.752a.597.597 0 1 1 1.194 0v8.217l8.392-8.398a.59.59 0 0 1 1.158.181c0 .094-.026.18-.065.26l.075.075-8.628 8.634z" fill="#fff" fill-rule="evenodd"/></svg>