<svg width="36" height="36" viewBox="0 0 36 36" xmlns="http://www.w3.org/2000/svg"><path d="M17.979 29.957C11.363 29.957 6 24.594 6 17.979 6 11.363 11.363 6 17.979 6c6.615 0 11.978 5.363 11.978 11.979 0 6.615-5.363 11.978-11.978 11.978zm0-23.615c-6.427 0-11.637 5.21-11.637 11.637 0 6.426 5.21 11.636 11.637 11.636 6.426 0 11.636-5.21 11.636-11.636 0-6.427-5.21-11.637-11.636-11.637zm-.077 17.608v-.28a5.614 5.614 0 1 0-5.612-5.73l1.626-1.626.242.242-1.936 1.936-1.936-1.936.242-.242 1.485 1.485a5.895 5.895 0 1 1 5.889 6.151z" fill="#fff" fill-rule="evenodd"/></svg>